<svg data-v-423bf9ae="" xmlns="http://www.w3.org/2000/svg" viewBox="0 0 438.24433135564584 163" class="iconAbove"><!----><!----><!----><g data-v-423bf9ae="" id="b8810311-2c4c-4d29-80a5-d526bbf3f344" fill="#D1A103" transform="matrix(5.42986415966838,0,0,5.42986415966838,5.375571055590939,87.79638371128615)"><path d="M5.75 9.49L5.75 9.49L5.75 9.49Q6.41 9.93 7.08 10.49L7.08 10.49L6.80 12.25L6.80 12.25Q4.90 13.47 2.10 13.76L2.10 13.76L2.10 13.76Q1.30 13.85 0.59 13.85L0.59 13.85L-0.99 12.42L-0.99 12.42Q0.80 8.46 3.25 5.49L3.25 5.49L3.25 5.49Q2.17 5.33 1.54 5.33L1.54 5.33L2.14 3.67L2.14 3.67Q3.82 3.74 5.38 4.00L5.38 4.00L5.38 4.00Q6.93 4.26 8.41 4.90L8.41 4.90L9.48 7.27L9.48 7.27Q7.98 8.83 5.75 9.49ZM3.44 8.53L3.44 8.53L3.44 8.53Q4.84 8.19 5.54 7.85L5.54 7.85L5.54 7.85Q6.66 7.34 7.41 6.68L7.41 6.68L7.41 6.68Q5.94 5.94 3.63 5.56L3.63 5.56L4.87 6.57L4.87 6.57Q3.84 7.91 3.44 8.53ZM1.46 11.94L1.46 11.94L1.46 11.94Q3.70 11.86 5.17 11.06L5.17 11.06L5.17 11.06Q4.68 10.50 3.42 9.91L3.42 9.91L3.42 9.91Q3.07 9.76 2.74 9.62L2.74 9.62L2.74 9.62Q2.00 10.82 1.46 11.94ZM12.35 10.68L12.35 10.68L12.35 10.68Q11.69 10.68 11.31 10.58L11.31 10.58L11.31 10.58Q11.09 11.13 11.03 11.94L11.03 11.94L11.03 11.94Q13.44 11.80 15.68 10.86L15.68 10.86L15.68 10.86Q16.44 10.56 17.14 10.14L17.14 10.14L17.43 11.55L17.43 11.55Q16.13 12.38 14.35 13.01L14.35 13.01L14.35 13.01Q12.46 13.68 10.78 13.76L10.78 13.76L9.04 12.15L9.04 12.15Q9.04 10.22 10.09 8.62L10.09 8.62L10.09 8.62Q10.85 7.52 11.81 6.87L11.81 6.87L11.81 6.87Q12.77 6.23 13.65 5.95L13.65 5.95L16.02 7.91L16.02 7.91Q15.67 9.37 14.69 10.02L14.69 10.02L14.69 10.02Q13.71 10.68 12.35 10.68ZM11.90 9.32L11.90 9.32L11.90 9.32Q12.71 9.32 13.31 8.88L13.31 8.88L13.31 8.88Q14.01 8.34 14.01 7.39L14.01 7.39L14.01 7.39Q12.60 8.16 11.90 9.32ZM17.60 7.11L17.60 7.11L17.60 7.11Q18.27 6.20 19.28 5.22L19.28 5.22L20.58 6.23L20.58 6.23Q20.43 6.87 20.31 7.17L20.31 7.17L20.31 7.17Q22.12 6.97 22.92 6.78L22.92 6.78L22.92 6.78Q23.72 6.58 24.30 6.43L24.30 6.43L24.70 8.09L24.70 8.09Q24.12 8.26 23.49 8.39L23.49 8.39L23.49 8.39Q22.53 9.91 21.88 11.62L21.88 11.62L21.88 11.62Q24.21 10.82 25.31 10.14L25.31 10.14L25.62 11.55L25.62 11.55Q24.33 12.39 22.25 13.27L22.25 13.27L22.25 13.27Q21.57 13.55 20.96 13.76L20.96 13.76L19.47 12.28L19.47 12.28Q20.38 10.19 21.42 8.68L21.42 8.68L21.42 8.68Q20.44 8.76 19.68 8.79L19.68 8.79L19.68 8.79Q19.46 9.21 18.48 10.89L18.48 10.89L17.44 11.55L16.11 10.77L16.11 10.77Q17.28 9.51 17.68 9.00L17.68 9.00L17.68 9.00Q18.09 8.50 18.38 8.13L18.38 8.13L18.38 8.13Q17.98 7.69 17.60 7.11ZM31.05 11.21L31.05 11.21L31.05 11.21Q31.95 10.98 33.82 10.14L33.82 10.14L34.12 11.55L34.12 11.55Q32.37 12.43 31.39 12.77L31.39 12.77L31.39 12.77Q29.97 13.23 27.40 13.76L27.40 13.76L25.94 12.60L25.58 13.76L24.04 12.56L24.04 12.56Q24.74 10.36 27.06 6.16L27.06 6.16L27.06 6.16Q28.03 4.42 28.73 3.39L28.73 3.39L30.18 4.47L30.18 4.47Q29.57 5.36 28.18 7.67L28.18 7.67L28.18 7.67Q29.01 6.92 30.04 6.33L30.04 6.33L32.23 8.04L32.23 8.04Q31.99 9.70 31.05 11.21ZM26.87 11.87L26.87 11.87L26.87 11.87Q27.59 11.87 28.01 11.75L28.01 11.75L28.01 11.75Q28.43 11.62 28.64 11.48L28.64 11.48L28.64 11.48Q28.84 11.34 29.12 10.96L29.12 10.96L29.12 10.96Q29.40 10.58 29.64 10.11L29.64 10.11L29.64 10.11Q30.17 9.02 30.27 8.05L30.27 8.05L30.27 8.05Q29.40 8.36 28.59 8.86L28.59 8.86L28.59 8.86Q27.78 9.35 27.26 9.91L27.26 9.91L27.26 9.91Q26.91 10.84 26.87 11.87ZM36.57 10.68L36.57 10.68L36.57 10.68Q35.91 10.68 35.53 10.58L35.53 10.58L35.53 10.58Q35.31 11.13 35.25 11.94L35.25 11.94L35.25 11.94Q37.66 11.80 39.90 10.86L39.90 10.86L39.90 10.86Q40.66 10.56 41.36 10.14L41.36 10.14L41.65 11.55L41.65 11.55Q40.35 12.38 38.57 13.01L38.57 13.01L38.57 13.01Q36.68 13.68 35.00 13.76L35.00 13.76L33.26 12.15L33.26 12.15Q33.26 10.22 34.31 8.62L34.31 8.62L34.31 8.62Q35.07 7.52 36.03 6.87L36.03 6.87L36.03 6.87Q36.99 6.23 37.87 5.95L37.87 5.95L40.24 7.91L40.24 7.91Q39.89 9.37 38.91 10.02L38.91 10.02L38.91 10.02Q37.93 10.68 36.57 10.68ZM36.12 9.32L36.12 9.32L36.12 9.32Q36.93 9.32 37.53 8.88L37.53 8.88L37.53 8.88Q38.23 8.34 38.23 7.39L38.23 7.39L38.23 7.39Q36.82 8.16 36.12 9.32ZM41.82 7.11L41.82 7.11L41.82 7.11Q42.49 6.20 43.50 5.22L43.50 5.22L44.80 6.23L44.80 6.23Q44.65 6.87 44.53 7.17L44.53 7.17L44.53 7.17Q46.34 6.97 47.14 6.78L47.14 6.78L47.14 6.78Q47.94 6.58 48.52 6.43L48.52 6.43L48.92 8.09L48.92 8.09Q48.34 8.26 47.71 8.39L47.71 8.39L47.71 8.39Q46.75 9.91 46.10 11.62L46.10 11.62L46.10 11.62Q48.43 10.82 49.53 10.14L49.53 10.14L49.84 11.55L49.84 11.55Q48.55 12.39 46.47 13.27L46.47 13.27L46.47 13.27Q45.79 13.55 45.18 13.76L45.18 13.76L43.69 12.28L43.69 12.28Q44.60 10.19 45.64 8.68L45.64 8.68L45.64 8.68Q44.66 8.76 43.90 8.79L43.90 8.79L43.90 8.79Q43.68 9.21 42.70 10.89L42.70 10.89L41.66 11.55L40.33 10.77L40.33 10.77Q41.50 9.51 41.90 9.00L41.90 9.00L41.90 9.00Q42.31 8.50 42.60 8.13L42.60 8.13L42.60 8.13Q42.20 7.69 41.82 7.11ZM60.28 9.49L60.28 9.49L60.28 9.49Q60.94 9.93 61.61 10.49L61.61 10.49L61.33 12.25L61.33 12.25Q59.43 13.47 56.63 13.76L56.63 13.76L56.63 13.76Q55.83 13.85 55.12 13.85L55.12 13.85L53.54 12.42L53.54 12.42Q55.33 8.46 57.78 5.49L57.78 5.49L57.78 5.49Q56.70 5.33 56.07 5.33L56.07 5.33L56.67 3.67L56.67 3.67Q58.35 3.74 59.91 4.00L59.91 4.00L59.91 4.00Q61.46 4.26 62.94 4.90L62.94 4.90L64.01 7.27L64.01 7.27Q62.51 8.83 60.28 9.49ZM57.97 8.53L57.97 8.53L57.97 8.53Q59.37 8.19 60.07 7.85L60.07 7.85L60.07 7.85Q61.19 7.34 61.94 6.68L61.94 6.68L61.94 6.68Q60.47 5.94 58.16 5.56L58.16 5.56L59.40 6.57L59.40 6.57Q58.37 7.91 57.97 8.53ZM55.99 11.94L55.99 11.94L55.99 11.94Q58.23 11.86 59.70 11.06L59.70 11.06L59.70 11.06Q59.21 10.50 57.95 9.91L57.95 9.91L57.95 9.91Q57.60 9.76 57.27 9.62L57.27 9.62L57.27 9.62Q56.53 10.82 55.99 11.94ZM68.73 13.71L67.49 12.33L67.49 12.33Q66.61 13.17 65.23 13.76L65.23 13.76L63.36 12.15L63.36 12.15Q63.56 10.57 64.34 9.03L64.34 9.03L64.34 9.03Q65.13 7.49 66.36 5.82L66.36 5.82L67.80 6.93L67.80 6.93Q65.84 9.58 65.32 11.75L65.32 11.75L65.32 11.75Q65.34 11.75 65.58 11.67L65.58 11.67L65.58 11.67Q65.83 11.59 66.22 11.37L66.22 11.37L66.22 11.37Q67.21 10.81 68.05 9.76L68.05 9.76L68.05 9.76Q69.03 7.77 69.93 6.51L69.93 6.51L71.43 7.67L71.43 7.67Q70.11 9.60 69.29 11.49L69.29 11.49L69.23 11.52L69.23 11.52Q70.13 11.28 71.18 10.79L71.18 10.79L71.18 10.79Q72.24 10.30 72.53 10.14L72.53 10.14L72.83 11.55L72.83 11.55Q71.96 12.18 70.10 13.10L70.10 13.10L70.10 13.10Q69.34 13.48 68.73 13.71L68.73 13.71ZM73.32 13.76L71.58 12.15L71.58 12.15Q72.18 9.98 73.72 7.24L73.72 7.24L73.72 7.24Q74.75 5.42 76.02 4.00L76.02 4.00L76.02 4.00Q76.66 3.29 77.35 2.80L77.35 2.80L79.72 4.47L79.72 4.47Q79.24 8.29 76.24 9.86L76.24 9.86L76.24 9.86Q75.28 10.36 74.09 10.65L74.09 10.65L74.09 10.65Q73.75 11.48 73.57 12.07L73.57 12.07L73.57 12.07Q75.31 11.83 76.27 11.54L76.27 11.54L76.27 11.54Q78.16 10.98 79.42 10.14L79.42 10.14L79.72 11.55L79.72 11.55Q77.66 12.98 75.04 13.54L75.04 13.54L75.04 13.54Q74.17 13.72 73.32 13.76L73.32 13.76ZM74.90 8.90L74.90 8.90L74.90 8.90Q76.17 8.30 76.93 7.17L76.93 7.17L76.93 7.17Q77.69 6.03 77.94 4.51L77.94 4.51L77.94 4.51Q76.83 5.50 75.57 7.67L75.57 7.67L75.57 7.67Q75.21 8.29 74.90 8.90Z"></path></g><!----><g data-v-423bf9ae="" id="d84a6dda-33f5-4b13-8510-d50f5b6fae14" transform="matrix(1.1166253313130898,0,0,1.1166253313130898,164.19876232712818,-11.17791577952866)" stroke="none" fill="#D1A103"><path d="M94.7 36L75.5 16.8l-.1-.1c-.9-.6-3-1.4-4.5.1L68 19.6c-7.9 7.9-15 14.9-21.3 21.2-1.8-.5-3.5-.9-5.1-1.1-.7-1.7-1.9-4.8-2.4-6C43.8 32 47 27.6 47 22.3c0-6.8-5.4-12.2-12.2-12.2-6.7 0-12.2 5.5-12.2 12.2 0 5.9 4 10.8 9.6 11.9-.2 1-.4 2.6-.4 4.8-1.8.1-3.3.2-4.1.4-1-5.8-5.9-10.1-12-10.1-6.7 0-12.2 5.5-12.2 12.2 0 6.8 5.4 12.2 12.2 12.2 5.1 0 9.3-3 11.2-7.3l5.6 2.3c.2 1.3.6 3.1 1.3 5.2C18.5 69 10.6 77 10 77.7c-.7.8-1 1.7-.9 2.6.1 1.2 1 2 1 2l6.4 6.4c.1.1 1 1 2.3 1 .6 0 1.4-.2 2.3-1 .3-.3 1.4-1.4 2.9-3 3.4-3.5 10.9-11.2 16.6-16.9 11.2 17.1 35.1 21.7 36.1 21.9h.2c.3 0 .7-.2.9-.5.2-.4.2-.8-.1-1.1 0 0-7.3-9.2-13.9-17.5l.9-.9c8.5 6.8 17.7 14 17.7 14 .2.1.4.2.6.2.2 0 .4 0 .5-.2.4-.2.5-.6.4-1.1-.1-.5-2.6-11.8-9.6-22.7l1.2-1.2.2-.2c.6-1 1.2-3.1-.2-4.4-.3-.3-1-.9-1.9-1.8-1.9-1.8-6.2-5.9-7.3-7.2.5-.6 1.5-1.7 2-2.1 1.2.9 5.1 5.1 6.8 7 1 1.1 1.8 1.9 2.1 2.3 1.4 1.4 3.4.7 4.4.1.1 0 .1-.1.2-.1l3.2-3.2c.1-.1.1-.1.1-.2.6-1 1.2-3-.1-4.4-.3-.3-1-1-1.9-1.8-1.9-1.9-6.2-6-7.3-7.3.4-.6 1.5-1.6 2-1.9 1.5 1.1 7.6 7.6 8.9 9.2 1.4 1.6 3.5.8 4.5.2.1 0 .1-.1.2-.1l3.2-3.2.1-.1c.7-.9 1.5-2.9 0-4.5zM24.6 22.3c0-5.6 4.6-10.2 10.2-10.2 5.7 0 10.2 4.5 10.2 10.2s-4.5 10.2-10.2 10.2-10.2-4.4-10.2-10.2zm9.5 12.2h3.3c.4 1 1.2 3.1 1.9 4.8-2.1-.3-4-.4-5.6-.4 0-2 .3-3.5.4-4.4zM15.6 51.7c-5.7 0-10.2-4.5-10.2-10.2 0-5.6 4.6-10.2 10.2-10.2 5.7 0 10.2 4.5 10.2 10.2s-4.5 10.2-10.2 10.2zm12.2-10.3c2.2-.3 8.9-1.1 17.3 1.1-1.3 1.3-2.6 2.6-3.9 3.8.1-.3.1-.5.1-.8 0-1.4-1.2-2.6-2.6-2.6-1.4 0-2.6 1.2-2.6 2.6 0 1.5 1.1 2.6 2.6 2.6.3 0 .5 0 .8-.1L38 49.5c-1.6-1.1-2.8-1.8-2.8-1.8s-.1 0-.1-.1l-7.4-2.9v-3.3zm11.6 4.1c0 .4-.2.6-.6.6-.4 0-.6-.2-.6-.6s.4-.6.6-.6.6.2.6.6zm-4.8 4.2c.4.2 1.1.7 2 1.3l-1.4 1.4c-.2-1.1-.4-2-.6-2.7zM42 67.3c2.6-2.6 4.7-4.6 5.6-5.4 2 1.6 9.1 9.2 10.4 10.7 1.3 1.5 3.2.9 4.3.3 4.6 5.8 9.5 11.9 12 15.1-6.7-1.7-23.8-7.4-32.3-20.7zm39.2 14c-3.2-2.6-9.3-7.4-15.2-12 .8-1 1.4-2.9-.2-4.4-.4-.4-1.3-1.2-2.3-2.2-2-1.9-6-5.6-6.9-6.8.4-.6 1.5-1.6 2.1-2 .7.5 2.6 2.3 8.5 8.8l.4.4c1.5 1.6 3.6.8 4.5.1l.1-.1.6-.6c4.6 7.3 7.2 14.8 8.4 18.8zm12-42l-3 3c-.3.2-1.3.7-1.8.1-.1-.1-8.7-10-10.4-10-1.3 0-3.2 2.1-3.6 2.7-.4.5-.8 1.1-.6 1.8.1.5.5 1 8 8.2.9.8 1.6 1.5 1.9 1.8.5.5.1 1.6-.1 1.9l-3 3c-.3.2-1.4.6-1.9.1-.3-.3-1.1-1.2-2-2.2-6.7-7.3-7.6-7.9-8.5-7.7-1.3.3-3.9 3-4 4.1-.1.7-.1.9 8.1 8.7.9.8 1.6 1.5 1.8 1.7.5.5 0 1.6-.1 1.9l-3 3c-.3.2-1.3.7-1.8.1l-.4-.4c-8.9-9.8-9.5-9.7-10.2-9.5-1 .3-3.9 2.7-3.9 4.1 0 .8.6 1.6 7.7 8.2 1 .9 1.8 1.7 2.2 2.1.8.8.2 1.5 0 1.8l-3.1 3.1c-.3.2-1.3.7-1.8.1-.1-.1-10.3-11.6-12-11.6-.7 0-1.1 0-25 24.6-1.5 1.6-2.6 2.6-2.9 2.9-.8.8-1.4.3-1.8 0l-6.5-6.5s-.3-.3-.3-.7c0-.3.1-.7.5-1.1.6-.7 11.2-11.4 57.9-58l2.8-2.8c.2-.2.5-.3.7-.3.5 0 1 .3 1.1.4L93.3 37c.6 1.1.1 2.1-.1 2.3z"></path></g><!----></svg>